# xmcd
#
# Track frame offsets:
#	150
#	16080
#	32453
#	54311
#	70597
#	89045
#	104517
#	117556
#	132198
#	149315
#	166799
#	182754
#	198798
#	215157
#	231158
#	250167
#	269927
#	285513
#	303023
#
# Disc length: 4324 seconds
#
# Revision: 1
# Processed by: cddbd v1.4PL0 Copyright (c) Steve Scherf et al.
# Submitted via: audiograbber 1.81.03
#
DISCID=1010e213
DTITLE=Shania Twain - Come On Over
DYEAR=1900
DGENRE=Country
TTITLE0=You're Still The One
TTITLE1=When
TTITLE2=Frome THis Moment On
TTITLE3=Black Eyes, Blue Tears
TTITLE4=I Woun't Leave You Lonely
TTITLE5=I'm Holdin' On to Love (To Save My Life)
TTITLE6=Come On OverNummer  7
TTITLE7=You're Got A Way
TTITLE8=Whatever You Do! Don't!
TTITLE9=Man! I Feel Like A Woman!
TTITLE10=Love Gets Me Every Time
TTITLE11=Don't Be Stupid (You Know I Love You)
TTITLE12=That Don't Impress Me Much
TTITLE13=Honey, I'm homeNummer 14
TTITLE14=If You wanna Touch Her, Ask!
TTITLE15=Rock This Country
TTITLE16=That Don't Impress Me Much (Soth-East Asia Mix)
TTITLE17=God Bless The Child (Single Mix)
TTITLE18=From This Moment On (Duet With Bryan White)
EXTD=
EXTT0=
EXTT1=
EXTT2=
EXTT3=
EXTT4=
EXTT5=
EXTT6=
EXTT7=
EXTT8=
EXTT9=
EXTT10=
EXTT11=
EXTT12=
EXTT13=
EXTT14=
EXTT15=
EXTT16=
EXTT17=
EXTT18=
PLAYORDER=
